# xmcd
#
# Track frame offsets:
#	150
#	18158
#	30725
#	50665
#	69395
#	83985
#	99678
#	113858
#	129093
#	151525
#	167365
#	184595
#	198823
#	216065
#	231190
#	251470
#	272030
#
# Disc length: 3803 seconds
#
# Revision: 0
# Processed by: cddbd v1.5.2PL0 Copyright (c) Steve Scherf et al.
# Submitted via: dBpowerAMP V4.0
#
DISCID=d20ed911
DTITLE=Melba Moore - The Greatest Feeling
DYEAR=1989
DGENRE=R&B
TTITLE0=The Long And Widing Road
TTITLE1=Ain't No Love Lost
TTITLE2=Free
TTITLE3=Playboy Scout
TTITLE4=Blood Red Roses
TTITLE5=So Many Mountains
TTITLE6=I Am His Lady
TTITLE7=The Way You Make Me Feel
TTITLE8=You Are My River
TTITLE9=Greeen Birds Fly
TTITLE10=Stay Awhile
TTITLE11=The Greatest Feeling
TTITLE12=Standing Right Here
TTITLE13=If I Lose
TTITLE14=One Less Morning
TTITLE15=Sunshine Superman
TTITLE16=Love Can Be Good To You
EXTD=
EXTT0=
EXTT1=
EXTT2=
EXTT3=
EXTT4=
EXTT5=
EXTT6=
EXTT7=
EXTT8=
EXTT9=
EXTT10=
EXTT11=
EXTT12=
EXTT13=
EXTT14=
EXTT15=
EXTT16=
PLAYORDER=
